<svg width="178" height="41" viewBox="0 0 178 41" fill="none" xmlns="http://www.w3.org/2000/svg">
<g clip-path="url(#clip0_341_982)">
<path d="M33.8673 15.0556C33.8673 28.6667 20.976 40.3334 17.4601 40.3334C13.9443 40.3334 1.4436 28.6667 1.4436 15.0556C1.4436 7.96793 7.69395 -0.111084 17.4601 -0.111084C27.2263 -0.111084 33.8673 7.96793 33.8673 15.0556Z" fill="white"/>
<path d="M26.6527 12.6007L22.8623 8.59397C21.9714 7.65229 20.4821 7.60818 19.5357 8.49545L10.1887 17.2585C9.24228 18.1458 9.19725 19.6284 10.0881 20.5701L13.8785 24.5768C14.7694 25.5185 16.2587 25.5626 17.2051 24.6753L26.5521 15.9122C27.4985 15.025 27.5435 13.5423 26.6527 12.6007Z" fill="#0B4A92"/>
<path d="M5.59277 32.4492L12.6461 26.0623" stroke="#0B4A92" stroke-width="2" stroke-linecap="round"/>
<path d="M0.859985 27.7119L8.02406 21.4486" stroke="#0B4A92" stroke-width="2" stroke-linecap="round"/>
<path d="M22.5393 15.4338L19.9436 12.8855" stroke="white" stroke-linecap="round"/>
<path d="M18.095 20.9541L22.914 16.235" stroke="white" stroke-linecap="round"/>
<path d="M13.9636 16.9255L18.9088 12.3302" stroke="white" stroke-linecap="round"/>
<path d="M17.2285 20.2783L14.6328 17.73" stroke="white" stroke-linecap="round"/>
<path d="M52.5188 35.319H48.9192C46.3461 35.319 44.8063 34.9372 44.2997 34.1736C43.7931 33.4101 43.5397 31.9421 43.5397 29.7698V15.788H41V12.3913H43.5397V7.77023H49.2392V12.3913H52.3188V15.788H49.2392V29.7303C49.2392 30.4017 49.4392 30.8559 49.8391 31.0929C50.2524 31.3168 51.1456 31.4286 52.5188 31.4286V35.319ZM67.0973 21.8902H61.3979V16.9136C61.3979 16.2159 61.0713 15.867 60.418 15.867C59.7647 15.867 59.4381 16.2027 59.4381 16.8742V35.319H53.7387V12.3913H59.4381V13.1615C60.198 12.5427 61.3712 12.2334 62.9577 12.2334C64.0909 12.2334 65.0642 12.5361 65.8775 13.1417C66.6907 13.7342 67.0973 14.5175 67.0973 15.4918V21.8902ZM81.6358 35.319H76.5963V34.4304C76.1697 35.2335 74.9499 35.635 72.9367 35.635C69.8304 35.635 68.2772 34.437 68.2772 32.0409V27.4395C68.2772 26.4126 68.6505 25.5173 69.3971 24.7537C70.157 23.9901 71.6769 23.0356 73.9566 21.8902C75.2765 21.2319 75.9364 20.7053 75.9364 20.3103V16.9136C75.9364 16.1632 75.6097 15.788 74.9565 15.788C74.2099 15.788 73.8366 16.703 73.8366 18.533C73.8366 18.8621 73.8566 19.3492 73.8966 19.9944C73.9499 20.6395 73.9766 21.1266 73.9766 21.4558H68.4772V16.8742C68.4772 13.7803 70.7436 12.2334 75.2765 12.2334C79.5164 12.2334 81.6358 13.8461 81.6358 17.0717V35.319ZM75.9364 31.0336V25.1289C74.6299 25.4449 73.9766 26.0242 73.9766 26.8668V31.0336C73.9766 31.7315 74.3166 32.0803 74.9965 32.0803C75.6231 32.0803 75.9364 31.7315 75.9364 31.0336ZM97.7338 12.3913L93.5547 35.319H86.675L82.4959 12.3913H88.2352L90.1948 25.9387L92.115 12.3913H97.7338ZM111.853 25.6029H104.194V30.9547C104.194 31.7315 104.527 32.1198 105.193 32.1198C105.847 32.1198 106.173 31.7315 106.173 30.9547V26.3336H111.853V30.9942C111.853 34.0881 109.62 35.635 105.153 35.635C100.727 35.635 98.5143 34.0223 98.5143 30.7967V17.0717C98.5143 13.8461 100.727 12.2334 105.153 12.2334C109.62 12.2334 111.853 13.7803 111.853 16.8742V25.6029ZM106.173 22.1667V16.9136C106.173 16.1632 105.847 15.788 105.193 15.788C104.527 15.788 104.194 16.1632 104.194 16.9136V22.1667H106.173ZM118.892 35.319H113.192V7H118.892V35.319ZM133.51 22.5419H127.831V16.9136C127.831 16.1632 127.505 15.788 126.851 15.788C126.185 15.788 125.851 16.1632 125.851 16.9136V30.9547C125.851 31.7315 126.185 32.1198 126.851 32.1198C127.505 32.1198 127.831 31.7315 127.831 30.9547V25.4054H133.51V30.9942C133.51 34.0881 131.318 35.635 126.931 35.635C122.425 35.635 120.172 34.0223 120.172 30.7967V17.0717C120.172 13.8461 122.425 12.2334 126.931 12.2334C131.318 12.2334 133.51 13.7803 133.51 16.8742V22.5419ZM148.229 35.319H143.189V34.4304C142.763 35.2335 141.543 35.635 139.53 35.635C136.424 35.635 134.87 34.437 134.87 32.0409V27.4395C134.87 26.4126 135.244 25.5173 135.99 24.7537C136.75 23.9901 138.27 23.0356 140.55 21.8902C141.87 21.2319 142.529 20.7053 142.529 20.3103V16.9136C142.529 16.1632 142.203 15.788 141.549 15.788C140.803 15.788 140.429 16.703 140.429 18.533C140.429 18.8621 140.45 19.3492 140.49 19.9944C140.543 20.6395 140.57 21.1266 140.57 21.4558H135.07V16.8742C135.07 13.7803 137.336 12.2334 141.87 12.2334C146.109 12.2334 148.229 13.8461 148.229 17.0717V35.319ZM142.529 31.0336V25.1289C141.223 25.4449 140.57 26.0242 140.57 26.8668V31.0336C140.57 31.7315 140.91 32.0803 141.59 32.0803C142.216 32.0803 142.529 31.7315 142.529 31.0336ZM163.087 21.8902H157.388V16.9136C157.388 16.2159 157.061 15.867 156.408 15.867C155.755 15.867 155.428 16.2027 155.428 16.8742V35.319H149.729V12.3913H155.428V13.1615C156.188 12.5427 157.361 12.2334 158.948 12.2334C160.081 12.2334 161.055 12.5361 161.867 13.1417C162.681 13.7342 163.087 14.5175 163.087 15.4918V21.8902ZM164.167 26.0966H169.847V30.9547C169.847 31.7315 170.166 32.1198 170.807 32.1198C171.446 32.1198 171.767 31.3759 171.767 29.8883C171.767 27.9529 171.373 26.7022 170.586 26.1361C167.614 24.5957 165.82 23.5227 165.207 22.9171C164.594 22.2983 164.287 21.3768 164.287 20.1524V17.0717C164.287 13.8461 166.5 12.2334 170.926 12.2334C175.233 12.2334 177.386 13.7803 177.386 16.8742V21.3965H171.827L171.946 18.6515C171.946 16.7425 171.593 15.788 170.886 15.788C170.18 15.788 169.827 16.3871 169.827 17.5851C169.827 18.8227 169.98 19.7574 170.287 20.3894C170.607 21.0213 172.353 22.1075 175.526 23.6478C176.846 24.5826 177.506 25.8201 177.506 27.3605V30.7967C177.506 34.0223 175.259 35.635 170.767 35.635C166.367 35.635 164.167 34.0881 164.167 30.9942V26.0966Z" fill="white"/>
</g>
<defs>
<clipPath id="clip0_341_982">
<rect width="178" height="41" fill="white"/>
</clipPath>
</defs>
</svg>
