<svg width="25" height="25" viewBox="0 0 25 25" fill="none" xmlns="http://www.w3.org/2000/svg">
<path d="M1.5625 22.6562C1.5625 23.9502 2.6123 25 3.90625 25H21.0938C22.3877 25 23.4375 23.9502 23.4375 22.6562V9.375H1.5625V22.6562ZM17.1875 13.0859C17.1875 12.7637 17.4512 12.5 17.7734 12.5H19.7266C20.0488 12.5 20.3125 12.7637 20.3125 13.0859V15.0391C20.3125 15.3613 20.0488 15.625 19.7266 15.625H17.7734C17.4512 15.625 17.1875 15.3613 17.1875 15.0391V13.0859ZM17.1875 19.3359C17.1875 19.0137 17.4512 18.75 17.7734 18.75H19.7266C20.0488 18.75 20.3125 19.0137 20.3125 19.3359V21.2891C20.3125 21.6113 20.0488 21.875 19.7266 21.875H17.7734C17.4512 21.875 17.1875 21.6113 17.1875 21.2891V19.3359ZM10.9375 13.0859C10.9375 12.7637 11.2012 12.5 11.5234 12.5H13.4766C13.7988 12.5 14.0625 12.7637 14.0625 13.0859V15.0391C14.0625 15.3613 13.7988 15.625 13.4766 15.625H11.5234C11.2012 15.625 10.9375 15.3613 10.9375 15.0391V13.0859ZM10.9375 19.3359C10.9375 19.0137 11.2012 18.75 11.5234 18.75H13.4766C13.7988 18.75 14.0625 19.0137 14.0625 19.3359V21.2891C14.0625 21.6113 13.7988 21.875 13.4766 21.875H11.5234C11.2012 21.875 10.9375 21.6113 10.9375 21.2891V19.3359ZM4.6875 13.0859C4.6875 12.7637 4.95117 12.5 5.27344 12.5H7.22656C7.54883 12.5 7.8125 12.7637 7.8125 13.0859V15.0391C7.8125 15.3613 7.54883 15.625 7.22656 15.625H5.27344C4.95117 15.625 4.6875 15.3613 4.6875 15.0391V13.0859ZM4.6875 19.3359C4.6875 19.0137 4.95117 18.75 5.27344 18.75H7.22656C7.54883 18.75 7.8125 19.0137 7.8125 19.3359V21.2891C7.8125 21.6113 7.54883 21.875 7.22656 21.875H5.27344C4.95117 21.875 4.6875 21.6113 4.6875 21.2891V19.3359ZM21.0938 3.125H18.75V0.78125C18.75 0.351562 18.3984 0 17.9688 0H16.4062C15.9766 0 15.625 0.351562 15.625 0.78125V3.125H9.375V0.78125C9.375 0.351562 9.02344 0 8.59375 0H7.03125C6.60156 0 6.25 0.351562 6.25 0.78125V3.125H3.90625C2.6123 3.125 1.5625 4.1748 1.5625 5.46875V7.8125H23.4375V5.46875C23.4375 4.1748 22.3877 3.125 21.0938 3.125Z" fill="#36455A" fill-opacity="0.75"/>
</svg>
