<svg width="25" height="25" viewBox="0 0 25 25" fill="none" xmlns="http://www.w3.org/2000/svg">
<g clip-path="url(#clip0_25_23)">
<path d="M12.1688 7.82377L4.16668 14.4145V21.5278C4.16668 21.7119 4.23984 21.8886 4.37007 22.0188C4.50031 22.149 4.67694 22.2222 4.86112 22.2222L9.72484 22.2096C9.90841 22.2087 10.0842 22.1351 10.2136 22.005C10.3431 21.8749 10.4158 21.6988 10.4158 21.5152V17.3611C10.4158 17.1769 10.489 17.0003 10.6192 16.8701C10.7494 16.7398 10.9261 16.6667 11.1103 16.6667H13.888C14.0722 16.6667 14.2488 16.7398 14.3791 16.8701C14.5093 17.0003 14.5825 17.1769 14.5825 17.3611V21.5121C14.5822 21.6035 14.5999 21.6941 14.6347 21.7786C14.6695 21.8631 14.7206 21.9399 14.7851 22.0046C14.8496 22.0693 14.9263 22.1207 15.0107 22.1557C15.0951 22.1907 15.1855 22.2088 15.2769 22.2088L20.1389 22.2222C20.3231 22.2222 20.4997 22.149 20.6299 22.0188C20.7602 21.8886 20.8333 21.7119 20.8333 21.5278V14.4097L12.8329 7.82377C12.7389 7.74796 12.6217 7.70662 12.5009 7.70662C12.3801 7.70662 12.2629 7.74796 12.1688 7.82377ZM24.809 12.3034L21.1806 9.31249V3.30077C21.1806 3.16264 21.1257 3.03016 21.028 2.93249C20.9303 2.83481 20.7979 2.77994 20.6597 2.77994H18.2292C18.091 2.77994 17.9586 2.83481 17.8609 2.93249C17.7632 3.03016 17.7083 3.16264 17.7083 3.30077V6.45225L13.8225 3.2552C13.4496 2.94833 12.9816 2.78055 12.4987 2.78055C12.0158 2.78055 11.5478 2.94833 11.1749 3.2552L0.188378 12.3034C0.135638 12.347 0.092004 12.4005 0.0599693 12.461C0.0279346 12.5214 0.00812682 12.5876 0.00167777 12.6557C-0.00477127 12.7239 0.0022648 12.7926 0.022384 12.858C0.0425031 12.9234 0.0753111 12.9842 0.118933 13.0369L1.2257 14.3824C1.26921 14.4353 1.32272 14.4791 1.38317 14.5113C1.44362 14.5434 1.50983 14.5634 1.578 14.57C1.64617 14.5765 1.71497 14.5696 1.78046 14.5496C1.84595 14.5295 1.90684 14.4967 1.95965 14.4531L12.1688 6.04426C12.2629 5.96845 12.3801 5.9271 12.5009 5.9271C12.6217 5.9271 12.7389 5.96845 12.8329 6.04426L23.0425 14.4531C23.0953 14.4967 23.1561 14.5295 23.2214 14.5497C23.2868 14.5698 23.3556 14.5768 23.4237 14.5704C23.4918 14.5639 23.558 14.5441 23.6184 14.5121C23.6789 14.48 23.7325 14.4364 23.7761 14.3837L24.8828 13.0382C24.9264 12.9852 24.9591 12.9241 24.979 12.8584C24.9988 12.7927 25.0055 12.7237 24.9987 12.6554C24.9918 12.5872 24.9715 12.5209 24.939 12.4605C24.9064 12.4001 24.8623 12.3467 24.809 12.3034Z" fill="#36455A" fill-opacity="0.75"/>
</g>
<defs>
<clipPath id="clip0_25_23">
<rect width="25" height="25" fill="white"/>
</clipPath>
</defs>
</svg>
