<?xml version="1.0" ?><!DOCTYPE svg  PUBLIC '-//W3C//DTD SVG 1.1//EN'  'http://www.w3.org/Graphics/SVG/1.1/DTD/svg11.dtd'><svg enable-background="new 0 0 48 48" height="48px" id="Layer_3" version="1.1" viewBox="0 0 48 48" width="48px" xml:space="preserve" xmlns="http://www.w3.org/2000/svg" xmlns:xlink="http://www.w3.org/1999/xlink"><g><path d="M24,0.125C10.814,0.125,0.125,10.814,0.125,24S10.814,47.875,24,47.875   c13.186,0,23.875-10.689,23.875-23.875S37.186,0.125,24,0.125z M24,43.896C13.012,43.896,4.104,34.988,4.104,24   S13.012,4.104,24,4.104S43.896,13.012,43.896,24S34.988,43.896,24,43.896z" fill="#241F20"/><path d="M25.22,16.234c0.572,0,1.097-0.202,1.57-0.606c0.469-0.404,0.757-0.894,0.86-1.466   c0.098-0.576-0.024-1.062-0.38-1.466c-0.354-0.408-0.818-0.61-1.392-0.61c-0.576,0-1.1,0.202-1.569,0.61   c-0.474,0.403-0.762,0.89-0.86,1.466c-0.071,0.573,0.066,1.062,0.403,1.466C24.19,16.032,24.648,16.234,25.22,16.234z" fill="#241F20"/><path d="M29.622,30.4c-0.053,0.075-0.104,0.14-0.156,0.216c-0.312,0.396-1.475,1.795-2.984,2.632   c-0.01,0.004-0.019,0.008-0.024,0.014c-0.132,0.07-0.267,0.123-0.401,0.185c-0.398,0.143-0.771,0.179-0.891,0.188   c-0.339-0.044-0.523-0.281-0.523-0.73c0-0.371,0.109-1.104,0.329-2.205l0.253-1.111l1.035-4.968   c0.168-0.846,0.258-1.316,0.278-1.409l0.226-1.162c0.133-0.719,0.201-1.194,0.201-1.426c0-0.444-0.11-0.781-0.287-1.055   c-0.016-0.04-0.037-0.08-0.066-0.122c-0.026-0.032-0.054-0.06-0.082-0.089c-0.031-0.034-0.046-0.063-0.088-0.098   c-0.441-0.36-0.853-0.464-1.137-0.487l0.005-0.008c0,0-1.867-0.141-4.633,1.682c-0.04,0.026-0.064,0.045-0.101,0.07   c-0.749,0.474-1.348,0.949-1.763,1.332c-0.318,0.272-0.563,0.525-0.745,0.762l-0.008,0.011l0.001-0.001   c-0.236,0.311-0.36,0.593-0.36,0.843c0,0.197,0.16,0.394,0.476,0.591c0,0,1.188-1.534,3.185-2.532   c0.15-0.065,0.534-0.224,0.872-0.312c0.157-0.036,0.455-0.064,0.645,0.093c0.136,0.142,0.226,0.339,0.226,0.646   c0,0.279-0.042,0.618-0.127,1.023l-0.202,0.957l-0.251,1.196l-0.986,4.728c-0.504,2.442-0.757,3.903-0.757,4.379   c0,1.123,0.615,1.685,1.843,1.685c0.557,0,1.129-0.101,1.716-0.281c0.004,0,0.006,0.002,0.01,0.004   c0.04-0.014,0.077-0.029,0.116-0.043c0.097-0.031,0.195-0.068,0.292-0.105c2.771-1.031,4.595-3.108,5.146-3.804   c0.049-0.059,0.091-0.114,0.13-0.167c0.031-0.043,0.051-0.072,0.051-0.072h-0.002c0.14-0.206,0.217-0.377,0.217-0.505   C30.299,30.766,30.068,30.587,29.622,30.4z" fill="#241F20"/></g></svg>