<svg width="226" height="81" viewBox="0 0 226 81" fill="none" xmlns="http://www.w3.org/2000/svg">
<path d="M66.3652 60H61.7949C58.528 60 56.5729 59.5091 55.9297 58.5273C55.2865 57.5456 54.9648 55.6582 54.9648 52.8652V34.8887H51.7402V30.5215H54.9648V24.5801H62.2012V30.5215H66.1113V34.8887H62.2012V52.8145C62.2012 53.6777 62.4551 54.2617 62.9629 54.5664C63.4876 54.8542 64.6217 54.998 66.3652 54.998V60ZM84.875 42.7344H77.6387V36.3359C77.6387 35.4388 77.224 34.9902 76.3945 34.9902C75.5651 34.9902 75.1504 35.4219 75.1504 36.2852V60H67.9141V30.5215H75.1504V31.5117C76.1152 30.7161 77.6048 30.3184 79.6191 30.3184C81.0579 30.3184 82.2936 30.7077 83.3262 31.4863C84.3587 32.248 84.875 33.2552 84.875 34.5078V42.7344ZM103.334 60H96.9355V58.8574C96.3939 59.89 94.8451 60.4062 92.2891 60.4062C88.3451 60.4062 86.373 58.8659 86.373 55.7852V49.8691C86.373 48.5488 86.847 47.3978 87.7949 46.416C88.7598 45.4342 90.6895 44.207 93.584 42.7344C95.2598 41.888 96.0977 41.2109 96.0977 40.7031V36.3359C96.0977 35.3711 95.6829 34.8887 94.8535 34.8887C93.9056 34.8887 93.4316 36.0651 93.4316 38.418C93.4316 38.8411 93.457 39.4674 93.5078 40.2969C93.5755 41.1263 93.6094 41.7526 93.6094 42.1758H86.627V36.2852C86.627 32.3073 89.5046 30.3184 95.2598 30.3184C100.643 30.3184 103.334 32.3919 103.334 36.5391V60ZM96.0977 54.4902V46.8984C94.4388 47.3047 93.6094 48.0495 93.6094 49.1328V54.4902C93.6094 55.3874 94.041 55.8359 94.9043 55.8359C95.6999 55.8359 96.0977 55.3874 96.0977 54.4902ZM123.773 30.5215L118.467 60H109.732L104.426 30.5215H111.713L114.201 47.9395L116.639 30.5215H123.773ZM141.699 47.5078H131.975V54.3887C131.975 55.3874 132.398 55.8867 133.244 55.8867C134.074 55.8867 134.488 55.3874 134.488 54.3887V48.4473H141.699V54.4395C141.699 58.4173 138.864 60.4062 133.193 60.4062C127.574 60.4062 124.764 58.3327 124.764 54.1855V36.5391C124.764 32.3919 127.574 30.3184 133.193 30.3184C138.864 30.3184 141.699 32.3073 141.699 36.2852V47.5078ZM134.488 43.0898V36.3359C134.488 35.3711 134.074 34.8887 133.244 34.8887C132.398 34.8887 131.975 35.3711 131.975 36.3359V43.0898H134.488ZM150.637 60H143.4V23.5898H150.637V60ZM169.197 43.5723H161.986V36.3359C161.986 35.3711 161.572 34.8887 160.742 34.8887C159.896 34.8887 159.473 35.3711 159.473 36.3359V54.3887C159.473 55.3874 159.896 55.8867 160.742 55.8867C161.572 55.8867 161.986 55.3874 161.986 54.3887V47.2539H169.197V54.4395C169.197 58.4173 166.413 60.4062 160.844 60.4062C155.122 60.4062 152.262 58.3327 152.262 54.1855V36.5391C152.262 32.3919 155.122 30.3184 160.844 30.3184C166.413 30.3184 169.197 32.3073 169.197 36.2852V43.5723ZM187.885 60H181.486V58.8574C180.945 59.89 179.396 60.4062 176.84 60.4062C172.896 60.4062 170.924 58.8659 170.924 55.7852V49.8691C170.924 48.5488 171.398 47.3978 172.346 46.416C173.311 45.4342 175.24 44.207 178.135 42.7344C179.811 41.888 180.648 41.2109 180.648 40.7031V36.3359C180.648 35.3711 180.234 34.8887 179.404 34.8887C178.456 34.8887 177.982 36.0651 177.982 38.418C177.982 38.8411 178.008 39.4674 178.059 40.2969C178.126 41.1263 178.16 41.7526 178.16 42.1758H171.178V36.2852C171.178 32.3073 174.055 30.3184 179.811 30.3184C185.193 30.3184 187.885 32.3919 187.885 36.5391V60ZM180.648 54.4902V46.8984C178.99 47.3047 178.16 48.0495 178.16 49.1328V54.4902C178.16 55.3874 178.592 55.8359 179.455 55.8359C180.251 55.8359 180.648 55.3874 180.648 54.4902ZM206.75 42.7344H199.514V36.3359C199.514 35.4388 199.099 34.9902 198.27 34.9902C197.44 34.9902 197.025 35.4219 197.025 36.2852V60H189.789V30.5215H197.025V31.5117C197.99 30.7161 199.48 30.3184 201.494 30.3184C202.933 30.3184 204.169 30.7077 205.201 31.4863C206.234 32.248 206.75 33.2552 206.75 34.5078V42.7344ZM208.121 48.1426H215.332V54.3887C215.332 55.3874 215.738 55.8867 216.551 55.8867C217.363 55.8867 217.77 54.9303 217.77 53.0176C217.77 50.5293 217.27 48.9212 216.271 48.1934C212.497 46.2129 210.22 44.8333 209.441 44.0547C208.663 43.2591 208.273 42.0742 208.273 40.5V36.5391C208.273 32.3919 211.083 30.3184 216.703 30.3184C222.171 30.3184 224.904 32.3073 224.904 36.2852V42.0996H217.846L217.998 38.5703C217.998 36.1159 217.549 34.8887 216.652 34.8887C215.755 34.8887 215.307 35.6589 215.307 37.1992C215.307 38.7904 215.501 39.9922 215.891 40.8047C216.297 41.6172 218.514 43.0137 222.543 44.9941C224.219 46.196 225.057 47.7871 225.057 49.7676V54.1855C225.057 58.3327 222.204 60.4062 216.5 60.4062C210.914 60.4062 208.121 58.4173 208.121 54.4395V48.1426Z" fill="white"/>
<path d="M43 33.5C43 51 26.6324 66 22.1685 66C17.7046 66 1.83289 51 1.83289 33.5C1.83289 24.3873 9.76872 14 22.1685 14C34.5682 14 43 24.3873 43 33.5Z" fill="white"/>
<rect width="13.0497" height="22.364" rx="3" transform="matrix(0.682661 0.730736 -0.725224 0.688513 26.9795 23)" fill="#0475C8"/>
<line x1="1" y1="-1" x2="13.1504" y2="-1" transform="matrix(0.737044 -0.675844 0.669914 0.742439 7.03381 57.2817)" stroke="#0475C8" stroke-width="2" stroke-linecap="round"/>
<line x1="1" y1="-1" x2="13.1484" y2="-1" transform="matrix(0.748737 -0.662867 0.656867 0.754007 1 51.1893)" stroke="#0475C8" stroke-width="2" stroke-linecap="round"/>
<line x1="0.5" y1="-0.5" x2="5.14724" y2="-0.5" transform="matrix(-0.709176 -0.705031 0.699298 -0.714831 22.5787 40.2101)" stroke="white" stroke-linecap="round"/>
<line x1="0.5" y1="-0.5" x2="5.14724" y2="-0.5" transform="matrix(-0.709176 -0.705031 0.699298 -0.714831 29.3215 33.9815)" stroke="white" stroke-linecap="round"/>
<line x1="0.5" y1="-0.5" x2="9.11681" y2="-0.5" transform="matrix(0.710071 -0.704131 0.69839 0.715717 22.9686 41.7939)" stroke="white" stroke-linecap="round"/>
<line x1="0.5" y1="-0.5" x2="9.1215" y2="-0.5" transform="matrix(0.728265 -0.685296 0.679423 0.733747 17.7046 36.6138)" stroke="white" stroke-linecap="round"/>
</svg>
